<svg width="512" height="512" viewBox="0 0 512 512" fill="none" xmlns="http://www.w3.org/2000/svg">
    <rect width="512" height="512" rx="120" fill="black" style="fill:black;fill-opacity:1;"/>
    <path fill-rule="evenodd" clip-rule="evenodd" d="M289.412 133.48C290.71 133.833 291.926 134.438 292.991 135.261C294.055 136.084 294.947 137.109 295.615 138.276C296.284 139.444 296.715 140.732 296.885 142.067C297.056 143.401 296.961 144.757 296.607 146.055L235.164 371.326C234.45 373.947 232.725 376.178 230.366 377.527C228.008 378.877 225.21 379.234 222.588 378.521C219.966 377.807 217.735 376.082 216.386 373.724C215.036 371.365 214.679 368.568 215.393 365.946L276.836 140.675C277.189 139.377 277.794 138.161 278.617 137.096C279.44 136.032 280.465 135.14 281.633 134.472C282.801 133.804 284.089 133.372 285.423 133.202C286.758 133.032 288.113 133.127 289.412 133.48ZM320.447 177.087C322.368 175.17 324.97 174.093 327.684 174.093C330.398 174.093 333.001 175.17 334.921 177.087L406.605 248.765C408.523 250.684 409.6 253.287 409.6 256C409.6 258.714 408.523 261.317 406.605 263.236L334.921 334.914C333.983 335.92 332.853 336.727 331.597 337.286C330.34 337.846 328.984 338.147 327.609 338.171C326.234 338.195 324.869 337.942 323.593 337.427C322.318 336.912 321.16 336.146 320.187 335.174C319.215 334.201 318.448 333.043 317.933 331.768C317.418 330.493 317.165 329.127 317.19 327.752C317.214 326.378 317.515 325.022 318.075 323.766C318.634 322.51 319.441 321.379 320.447 320.442L384.895 256L320.447 191.559C318.53 189.639 317.453 187.037 317.453 184.323C317.453 181.61 318.53 179.007 320.447 177.087ZM191.552 177.087C193.47 179.007 194.547 181.61 194.547 184.323C194.547 187.037 193.47 189.639 191.552 191.559L127.105 256L191.552 320.442C193.361 322.383 194.346 324.95 194.299 327.603C194.252 330.256 193.178 332.787 191.301 334.663C189.425 336.539 186.894 337.613 184.241 337.66C181.588 337.707 179.02 336.722 177.079 334.914L105.395 263.236C103.477 261.317 102.4 258.714 102.4 256C102.4 253.287 103.477 250.684 105.395 248.765L177.079 177.087C178.999 175.17 181.602 174.093 184.316 174.093C187.029 174.093 189.632 175.17 191.552 177.087Z" fill="#FDFDFD" style="fill:#FDFDFD;fill:color(display-p3 0.9904 0.9904 0.9904);fill-opacity:1;"/>
</svg>
